<?xml version="1.0" standalone="no"?>
<!DOCTYPE svg PUBLIC "-//W3C//DTD SVG 20010904//EN"
 "http://www.w3.org/TR/2001/REC-SVG-20010904/DTD/svg10.dtd">
<svg version="1.0" xmlns="http://www.w3.org/2000/svg"
 width="300.000000pt" height="300.000000pt" viewBox="0 0 300.000000 300.000000"
 preserveAspectRatio="xMidYMid meet">
<metadata>
Created by potrace 1.14, written by Peter Selinger 2001-2017
</metadata>
<g transform="translate(0.000000,300.000000) scale(0.100000,-0.100000)"
fill="#000000" stroke="none">
<path d="M453 2934 c57 -56 67 -71 67 -100 0 -26 4 -34 18 -34 23 0 47 -39 33
-53 -8 -8 -11 -8 -11 1 0 7 -13 12 -30 12 -28 0 -30 -3 -30 -35 0 -19 -5 -45
-11 -59 -9 -20 -9 -29 0 -40 7 -8 10 -19 7 -24 -3 -5 1 -18 9 -28 8 -10 15
-37 16 -59 l1 -40 10 37 c8 29 17 39 43 48 47 16 61 35 41 55 -9 9 -16 23 -16
31 0 8 -4 14 -10 14 -5 0 -10 19 -10 43 0 27 3 37 9 29 4 -8 19 -19 32 -26 13
-6 25 -22 27 -34 2 -13 13 -27 25 -32 12 -5 35 -22 51 -39 59 -63 70 -64 406
-65 168 0 315 3 326 7 14 5 24 19 28 40 3 18 15 40 26 50 11 9 20 23 20 30 0
8 9 22 20 32 11 10 20 26 20 37 0 10 14 37 30 60 17 22 30 46 30 53 0 6 16 34
35 61 19 27 35 54 35 61 0 7 8 17 18 22 12 7 -195 10 -658 11 l-675 0 68 -66z"/>
<path d="M2150 2975 c0 -13 -9 -33 -20 -43 -12 -11 -24 -42 -31 -77 -6 -32
-16 -64 -24 -71 -7 -7 -16 -34 -20 -60 -10 -66 -14 -74 -41 -74 -22 0 -23 -3
-14 -20 17 -31 2 -90 -22 -90 -36 0 -65 -50 -64 -110 1 -28 5 -36 23 -38 22
-3 53 -63 53 -104 0 -11 15 -35 34 -53 19 -17 46 -55 60 -84 15 -28 37 -56 50
-62 12 -6 30 -23 38 -37 19 -32 13 -92 -9 -92 -8 0 -11 -5 -7 -12 4 -7 3 -8
-5 -4 -6 4 -9 12 -6 17 4 5 -1 9 -9 9 -9 0 -16 6 -16 13 0 14 -40 37 -63 37
-7 0 -25 7 -42 16 -21 11 -65 16 -143 18 -94 3 -118 0 -147 -15 -19 -11 -45
-19 -58 -19 -15 0 -30 -12 -47 -40 -14 -22 -33 -40 -42 -40 -10 0 -25 -14 -33
-31 -25 -48 -22 -220 5 -239 13 -9 90 -157 90 -173 0 -8 4 -17 9 -19 5 -2 5
-13 0 -27 -9 -22 -13 -23 -58 -18 l-49 6 -29 -57 c-15 -31 -28 -58 -29 -59 -2
-7 -190 -17 -273 -15 -93 2 -94 2 -77 -17 9 -10 34 -22 54 -26 61 -11 185 -76
171 -89 -3 -3 -34 -1 -69 4 -36 5 -83 10 -106 10 -39 0 -94 18 -94 32 0 9 -93
-17 -137 -39 -107 -54 -169 -83 -180 -83 -19 0 -75 -52 -105 -99 -33 -53 -36
-81 -8 -81 17 0 20 -7 20 -39 0 -27 12 -60 38 -105 34 -60 60 -89 45 -50 -4
12 -2 15 8 12 8 -2 15 -19 17 -36 2 -20 10 -33 23 -37 11 -4 26 -21 34 -38 29
-62 72 -122 86 -120 20 4 38 -39 27 -63 -9 -20 -51 -44 -79 -44 -9 0 -22 -7
-30 -16 -10 -13 -10 -21 0 -47 7 -18 17 -50 21 -72 4 -23 8 -30 9 -17 2 37 23
21 50 -35 24 -52 58 -78 87 -66 21 8 33 -13 35 -57 0 -19 3 -29 6 -22 9 23 21
12 28 -28 l7 -40 954 0 954 0 0 1500 0 1500 -425 0 -425 0 0 -25z m290 -352
c0 -33 -15 -44 -48 -37 -38 8 -39 10 -9 35 28 23 57 24 57 2z m-147 -1156 c21
-45 16 -57 -24 -57 -19 0 -32 -6 -36 -17 -9 -24 -29 -43 -37 -36 -3 4 -6 0 -6
-9 0 -15 -39 -38 -65 -38 -9 0 -14 8 -12 23 2 19 -4 23 -45 31 -27 5 -48 12
-48 16 0 4 -11 5 -24 3 -18 -4 -34 4 -60 31 -57 56 -52 63 62 83 20 3 39 0 49
-8 14 -12 16 -12 8 1 -7 12 -6 13 6 4 8 -6 34 -11 59 -13 32 -1 41 1 30 8 -10
7 1 11 40 14 82 5 84 5 103 -36z m-73 -169 c0 -9 6 -19 13 -21 6 -3 2 -6 -10
-6 -28 -1 -33 7 -26 42 4 21 8 25 14 15 5 -7 9 -20 9 -30z"/>
<path d="M2160 1400 c0 -5 5 -10 10 -10 6 0 10 5 10 10 0 6 -4 10 -10 10 -5 0
-10 -4 -10 -10z"/>
<path d="M460 2852 c0 -5 -13 -7 -30 -4 -25 4 -30 1 -30 -16 0 -29 49 -77 63
-63 13 13 18 91 6 91 -5 0 -9 -4 -9 -8z"/>
<path d="M560 2515 c0 -9 6 -12 15 -9 8 4 15 7 15 9 0 2 -7 5 -15 9 -9 3 -15
0 -15 -9z"/>
<path d="M619 1942 c-47 -17 -109 -63 -109 -80 0 -5 -7 -15 -15 -22 -8 -7 -15
-21 -15 -31 0 -10 -9 -24 -20 -31 -27 -17 -25 -56 6 -126 32 -73 78 -106 181
-132 119 -30 152 -27 265 23 21 10 41 17 46 17 5 0 19 11 32 25 28 30 43 117
28 172 -5 21 -12 53 -15 71 -3 18 -14 39 -25 47 -12 8 -18 20 -15 29 7 18 -24
39 -46 30 -8 -3 -36 2 -61 10 -61 21 -178 20 -237 -2z m-36 -94 c23 -12 40
-30 59 -63 9 -18 8 -18 -14 3 -13 12 -28 22 -31 22 -22 0 -78 31 -72 40 8 13
31 13 58 -2z"/>
<path d="M1 848 c-1 -47 2 -58 15 -58 17 0 17 2 -4 80 -10 33 -10 32 -11 -22z"/>
<path d="M1 473 c0 -143 3 -200 10 -184 5 13 7 44 4 70 -7 60 4 79 42 65 25
-8 28 -15 29 -54 2 -61 13 -101 34 -125 30 -34 40 -62 40 -112 1 -39 6 -54 31
-81 27 -30 31 -31 45 -17 8 8 19 15 23 15 5 0 15 26 23 59 12 48 13 65 3 94
-7 19 -15 72 -19 118 -4 50 -13 90 -21 99 -8 9 -15 22 -15 29 0 6 -10 22 -23
35 -13 13 -29 38 -37 55 -7 18 -25 38 -39 46 -14 8 -22 14 -18 15 9 0 -31 60
-48 72 -5 4 -22 8 -37 8 l-28 0 1 -207z"/>
</g>
</svg>
